<mxfile host="app.diagrams.net" modified="2024-02-01T16:07:41.477Z" agent="Mozilla/5.0 (Windows NT 10.0; Win64; x64) AppleWebKit/537.36 (KHTML, like Gecko) Chrome/121.0.0.0 Safari/537.36" version="23.1.0" etag="EDpS7o9KFw5sKr8RYSvJ" type="github">
  <diagram name="PÃ¡gina-1" id="vRoXhG17WfUkG6E5nfiK">
    <mxGraphModel>
      <root>
        <mxCell id="0" />
        <mxCell id="1" parent="0" />
      </root>
    </mxGraphModel>
  </diagram>
</mxfile>
